<svg id="Layer_1" data-name="Layer 1" xmlns="http://www.w3.org/2000/svg" viewBox="0 0 800 96.74">
  <defs>
    <style>
      .cls-1 {
        fill: #fff;
      }
    </style>
  </defs>
  <title>Meritad Combined Logo White</title>
  <path class="cls-1" d="M45.52,2.56V54.15H35.58V24.41l-10,14.1H22.15L9.79,22.67V54.15H0V2.56H6.22L23.67,26.38,39.53,2.56Zm12.9,0V54.15H94.53V46.49H68.2V32H86.64l0-7.82H68.2V10.3H94.45l.08-7.74Zm53.86,51.59V34.58h9.26l10.92,19.57h10.47L130.26,32a16.37,16.37,0,0,0,6.41-5.46,14,14,0,0,0,2.39-8.12q0-7.74-5.72-11.8T118.66,2.56H102.5V54.15Zm16.39-35.28a6.5,6.5,0,0,1-2.77,5.81,13.08,13.08,0,0,1-7.4,1.86h-6.22V10.75h6.07q10.32,0,10.32,8.12m38.46-8.57h15.71V54.15h9.94V10.3h17.67V2.56H167.13Zm54.7,43.85L226.38,42H246l4.33,12.12h10.39L240.42,2.56h-8.34L212,54.15ZM236,16.07l6.9,18H229.27Zm75,12a31.83,31.83,0,0,0-2.62-13.31,19.85,19.85,0,0,0-8-8.95,25,25,0,0,0-13.16-3.23H267.66V54.15h19.57q11.38-.15,17.56-7T311,28.05m-10.17,0q0,9.25-3.6,13.54t-10.13,4.29h-9.64v-35h10.17q6.67,0,9.94,4.43t3.26,12.71M149.58,11V23.62l9.79-6.32Zm9.79,2.86V2.6h-9.79v5Zm-9.79,12.92V54.19h9.79V20.5ZM.38,96.35H14.82V92.82H4V74H.38Zm16.48,0h3.71L22.7,91h9.76l2.09,5.38h3.83L29.3,73.88H25.94ZM24,87.49l3.54-8.92,3.57,8.92Zm23.51,9h3.12l5.07-16,5.07,16h3.13L71.11,74h-3.8L62.39,90.58,57.32,74H54.25l-5.07,16.6L44.25,74H40.33Zm35.9-.16h3.72L89.27,91H99l2.09,5.38H105L95.87,73.88H92.51Zm7.17-8.86,3.53-8.92,3.57,8.92Zm17.89,8.86h3.6V87.27H122.5V83.73H112.09V77.58h11.74V74H108.49Zm19.35,0h3.59V88.58H136l5.09,7.77h4.27l-5.57-8.44a7.69,7.69,0,0,0,2-.91,6.44,6.44,0,0,0,1.55-1.44,6.76,6.76,0,0,0,1-1.94,7.92,7.92,0,0,0,.36-2.47v-.06a7.65,7.65,0,0,0-.44-2.68A6.5,6.5,0,0,0,143,76.27a6.85,6.85,0,0,0-2.5-1.64A9.52,9.52,0,0,0,137,74h-9.2Zm3.59-11.25V77.58h5.3a4.77,4.77,0,0,1,3.16.94A3.43,3.43,0,0,1,141,81.29v.07a3.44,3.44,0,0,1-1.16,2.73,4.5,4.5,0,0,1-3.1,1Zm17.93,11.25H153V74h-3.6Zm18.75.39a11.91,11.91,0,0,0,2.64-.27,9.41,9.41,0,0,0,2.2-.8,11.23,11.23,0,0,0,1.87-1.24,14.31,14.31,0,0,0,1.67-1.64l-2.33-2.56a12.82,12.82,0,0,1-2.68,2.12,6.44,6.44,0,0,1-3.25.78,6,6,0,0,1-2.73-.62,6.7,6.7,0,0,1-2.16-1.7,8,8,0,0,1-1.42-2.54,9.41,9.41,0,0,1-.5-3.07v-.07a9.35,9.35,0,0,1,.5-3.06,7.86,7.86,0,0,1,1.42-2.5,7,7,0,0,1,2.16-1.69,6.14,6.14,0,0,1,2.73-.62,6.46,6.46,0,0,1,3.16.77A11.26,11.26,0,0,1,174,80l2.33-2.9a14.72,14.72,0,0,0-1.56-1.4,9.63,9.63,0,0,0-1.8-1.1,9.78,9.78,0,0,0-2.14-.72,12,12,0,0,0-2.58-.25,10,10,0,0,0-4.3.91,10.35,10.35,0,0,0-3.37,2.48,11.35,11.35,0,0,0-2.21,3.67,12.45,12.45,0,0,0-.79,4.48v.06a12.47,12.47,0,0,0,.8,4.5,11.29,11.29,0,0,0,2.21,3.65,10.3,10.3,0,0,0,3.33,2.43,9.71,9.71,0,0,0,4.18.9m10.38-.39h3.72L184.33,91h9.76l2.1,5.38H200l-9.08-22.47h-3.36Zm7.17-8.86,3.54-8.92,3.57,8.92ZM311,59.59H0v.81H311ZM216.2,72.91h-3.86V96.35h14.85v-3h-11Zm18.23,0h-3.86V96.35h14.86v-3h-11Zm21.06,15a12.76,12.76,0,0,0,4.67-.82,7.73,7.73,0,0,0,3.42-2.55,6.89,6.89,0,0,0,1.29-4.24,6.46,6.46,0,0,0-2.5-5.61,11,11,0,0,0-6.57-1.81h-7V96.35h3.86V87.94Zm3.85-4.24a5.92,5.92,0,0,1-3.67,1h-3V76.15h3.06a6.13,6.13,0,0,1,3.78,1,4.58,4.58,0,0,1-.17,6.55ZM722.57,1.2V52.81h37V45.14h-27V30.64h18.9l0-7.81H732.61V8.94h26.91l.07-7.74ZM373.4,52.81l4.65-12.69h20l4.73,12.69h10.08L392.39,1.2h-8.52L363.32,52.81Zm14.5-38.29L395,32.26H381ZM629.8,52.83l4.65-12.69h20l4.73,12.69h10.08L648.8,1.22h-8.53L619.73,52.83Zm14.5-38.29,7.05,17.74h-14ZM461.81,13.38a20,20,0,0,0-8.14-9A26,26,0,0,0,440.22,1.2h-20V52.81h20q11.64-.15,17.95-7t6.32-19.09A31.08,31.08,0,0,0,461.81,13.38ZM450.42,40.25q-3.69,4.29-10.35,4.28h-9.85v-35h10.39q6.83,0,10.16,4.44T454.1,26.7Q454.1,36,450.42,40.25Zm38,12.56H497L517.51,1.2H507.44l-14.5,38.1L478.06,1.2H468Zm35.62-12.54A22.77,22.77,0,0,0,533,49.43a27.22,27.22,0,0,0,13.84,3.38,28.1,28.1,0,0,0,13.52-3.46,23.3,23.3,0,0,0,9.11-9.15,27.18,27.18,0,0,0,3.26-13.42,27.53,27.53,0,0,0-3.06-13,22.63,22.63,0,0,0-9-9.19A27.33,27.33,0,0,0,546.82,1.2a28,28,0,0,0-13.49,3.49,23.18,23.18,0,0,0-9.11,9.23A27.35,27.35,0,0,0,521,27.29,27.3,27.3,0,0,0,524.06,40.27Zm31-28.82a14.49,14.49,0,0,1,5.35,6.25,21.26,21.26,0,0,1,1.86,9.08,22.17,22.17,0,0,1-2,10,13.9,13.9,0,0,1-5.58,6.1,15.64,15.64,0,0,1-7.87,2,14.63,14.63,0,0,1-8.1-2.21,14.44,14.44,0,0,1-5.31-6.25,21.75,21.75,0,0,1-1.86-9.2,20.33,20.33,0,0,1,2.13-9.49,16,16,0,0,1,5.66-6.32A14.19,14.19,0,0,1,547,9.19,14.53,14.53,0,0,1,555,11.45Zm35.16-6.94a22.84,22.84,0,0,0-8.92,9.23,28.28,28.28,0,0,0-3.13,13.48A29.17,29.17,0,0,0,581,40.31a21.6,21.6,0,0,0,8.53,9.14,26.26,26.26,0,0,0,13.65,3.36,37.55,37.55,0,0,0,7.63-.88A29.73,29.73,0,0,0,618,49.6l-3.8-7a31.58,31.58,0,0,1-11.55,2.26,12.24,12.24,0,0,1-7.52-2.37,14.85,14.85,0,0,1-4.84-6.41,23.28,23.28,0,0,1-1.67-8.93,22.36,22.36,0,0,1,1.9-9.55,14.73,14.73,0,0,1,5.23-6.27,13.39,13.39,0,0,1,7.52-2.19,24.84,24.84,0,0,1,4.42.33q1.79.33,4.81,1.2l1.94.51,3.1-6.77A26.75,26.75,0,0,0,610.38,2a36.23,36.23,0,0,0-6.82-.8A26.39,26.39,0,0,0,590.19,4.51ZM671,8.94h16V52.83h10.16V8.94h18.06V1.2H671ZM791,51.27a14.88,14.88,0,0,0,6.74-4.94A12,12,0,0,0,800,39.07a11.33,11.33,0,0,0-1.82-6.4A17.72,17.72,0,0,0,793.64,28q-2.71-1.91-7.28-4.45l-2.25-1.27L781.63,21a40.4,40.4,0,0,1-5.7-3.71,4.55,4.55,0,0,1-1.75-3.63,4.22,4.22,0,0,1,2.21-3.85,11.13,11.13,0,0,1,5.7-1.31,18.44,18.44,0,0,1,5.62.82,47.34,47.34,0,0,1,5.78,2.32l3.33-7.78Q788.6,0,781.94,0a24.44,24.44,0,0,0-9.73,1.76A14.25,14.25,0,0,0,766,6.62a11.94,11.94,0,0,0-2.17,7A10.76,10.76,0,0,0,766,20.25a23.55,23.55,0,0,0,5.27,5.13q3.06,2.16,8.25,5.16l2.33,1.35a38.24,38.24,0,0,1,5.85,3.63,4.36,4.36,0,0,1,1.9,3.4,4.52,4.52,0,0,1-2.4,4.12c-1.6,1-4,1.42-7.06,1.42a23.62,23.62,0,0,1-6.66-1.08A40.4,40.4,0,0,1,767,40.87l-2.25,7.86a32.49,32.49,0,0,0,7.48,3,30.64,30.64,0,0,0,8.1,1.38A28.44,28.44,0,0,0,791,51.27Z"/>
</svg>
